%TF.GenerationSoftware,KiCad,Pcbnew,7.0.10-7.0.10~ubuntu22.04.1*%
%TF.CreationDate,2024-02-16T12:07:06-05:00*%
%TF.ProjectId,kicad,6b696361-642e-46b6-9963-61645f706362,rev?*%
%TF.SameCoordinates,Original*%
%TF.FileFunction,Copper,L2,Bot*%
%TF.FilePolarity,Positive*%
%FSLAX46Y46*%
G04 Gerber Fmt 4.6, Leading zero omitted, Abs format (unit mm)*
G04 Created by KiCad (PCBNEW 7.0.10-7.0.10~ubuntu22.04.1) date 2024-02-16 12:07:06*
%MOMM*%
%LPD*%
G01*
G04 APERTURE LIST*
G04 Aperture macros list*
%AMRoundRect*
0 Rectangle with rounded corners*
0 $1 Rounding radius*
0 $2 $3 $4 $5 $6 $7 $8 $9 X,Y pos of 4 corners*
0 Add a 4 corners polygon primitive as box body*
4,1,4,$2,$3,$4,$5,$6,$7,$8,$9,$2,$3,0*
0 Add four circle primitives for the rounded corners*
1,1,$1+$1,$2,$3*
1,1,$1+$1,$4,$5*
1,1,$1+$1,$6,$7*
1,1,$1+$1,$8,$9*
0 Add four rect primitives between the rounded corners*
20,1,$1+$1,$2,$3,$4,$5,0*
20,1,$1+$1,$4,$5,$6,$7,0*
20,1,$1+$1,$6,$7,$8,$9,0*
20,1,$1+$1,$8,$9,$2,$3,0*%
G04 Aperture macros list end*
%TA.AperFunction,ComponentPad*%
%ADD10C,1.600000*%
%TD*%
%TA.AperFunction,ComponentPad*%
%ADD11C,1.440000*%
%TD*%
%TA.AperFunction,ComponentPad*%
%ADD12R,1.800000X1.100000*%
%TD*%
%TA.AperFunction,ComponentPad*%
%ADD13RoundRect,0.275000X-0.625000X0.275000X-0.625000X-0.275000X0.625000X-0.275000X0.625000X0.275000X0*%
%TD*%
%TA.AperFunction,ComponentPad*%
%ADD14R,1.600000X1.600000*%
%TD*%
%TA.AperFunction,ComponentPad*%
%ADD15R,1.100000X1.800000*%
%TD*%
%TA.AperFunction,ComponentPad*%
%ADD16RoundRect,0.275000X-0.275000X-0.625000X0.275000X-0.625000X0.275000X0.625000X-0.275000X0.625000X0*%
%TD*%
%TA.AperFunction,ComponentPad*%
%ADD17O,1.600000X1.600000*%
%TD*%
%TA.AperFunction,Conductor*%
%ADD18C,0.250000*%
%TD*%
G04 APERTURE END LIST*
D10*
%TO.P,SW2,1,A*%
%TO.N,GND*%
X160020000Y-91440000D03*
%TO.P,SW2,2,B*%
%TO.N,Net-(J1-P13)*%
X155020000Y-91440000D03*
%TD*%
D11*
%TO.P,RV1,1,1*%
%TO.N,GND*%
X160020000Y-118110000D03*
%TO.P,RV1,2,2*%
%TO.N,Net-(A1-A0)*%
X157480000Y-118110000D03*
%TO.P,RV1,3,3*%
%TO.N,Net-(A1-VIN)*%
X154940000Y-118110000D03*
%TD*%
D12*
%TO.P,Q4,1,E*%
%TO.N,Net-(Q4-E)*%
X105170000Y-116840000D03*
D13*
%TO.P,Q4,2,B*%
%TO.N,Net-(Q4-B)*%
X107240000Y-118110000D03*
%TO.P,Q4,3,C*%
%TO.N,GND*%
X105170000Y-119380000D03*
%TD*%
D12*
%TO.P,Q3,1,E*%
%TO.N,Net-(Q3-E)*%
X105090000Y-124460000D03*
D13*
%TO.P,Q3,2,B*%
%TO.N,Net-(Q3-B)*%
X107160000Y-125730000D03*
%TO.P,Q3,3,C*%
%TO.N,GND*%
X105090000Y-127000000D03*
%TD*%
D10*
%TO.P,R7,1*%
%TO.N,Net-(Q7-B)*%
X113110000Y-95250000D03*
%TO.P,R7,2*%
%TO.N,Net-(A1-D2)*%
X118110000Y-95250000D03*
%TD*%
D12*
%TO.P,Q6,1,E*%
%TO.N,Net-(Q6-E)*%
X105090000Y-101600000D03*
D13*
%TO.P,Q6,2,B*%
%TO.N,Net-(Q6-B)*%
X107160000Y-102870000D03*
%TO.P,Q6,3,C*%
%TO.N,GND*%
X105090000Y-104140000D03*
%TD*%
D10*
%TO.P,R5,1*%
%TO.N,Net-(Q5-B)*%
X113190000Y-110490000D03*
%TO.P,R5,2*%
%TO.N,Net-(A1-D4)*%
X118190000Y-110490000D03*
%TD*%
%TO.P,SW1,1,A*%
%TO.N,GND*%
X160020000Y-125730000D03*
%TO.P,SW1,2,B*%
%TO.N,Net-(A1-D6)*%
X155020000Y-125730000D03*
%TD*%
D12*
%TO.P,Q7,1,E*%
%TO.N,Net-(J1-P15)*%
X105090000Y-93980000D03*
D13*
%TO.P,Q7,2,B*%
%TO.N,Net-(Q7-B)*%
X107160000Y-95250000D03*
%TO.P,Q7,3,C*%
%TO.N,GND*%
X105090000Y-96520000D03*
%TD*%
D10*
%TO.P,SW4,1,A*%
%TO.N,GND*%
X160020000Y-104140000D03*
%TO.P,SW4,2,B*%
%TO.N,Net-(J1-P111)*%
X155020000Y-104140000D03*
%TD*%
%TO.P,SW5,1,A*%
%TO.N,Net-(SW3-A)*%
X160020000Y-110490000D03*
%TO.P,SW5,2,B*%
%TO.N,Net-(A1-VIN)*%
X155020000Y-110490000D03*
%TD*%
D14*
%TO.P,J1,1,1*%
%TO.N,GND*%
X125155000Y-80010000D03*
D10*
%TO.P,J1,2,2*%
%TO.N,unconnected-(J1-Pad2)*%
X127925000Y-80010000D03*
%TO.P,J1,3,3*%
%TO.N,Net-(SW4-B)*%
X130695000Y-80010000D03*
%TO.P,J1,4,4*%
%TO.N,Net-(Q1-E)*%
X133465000Y-80010000D03*
%TO.P,J1,5,5*%
%TO.N,Net-(Q3-E)*%
X136235000Y-80010000D03*
%TO.P,J1,6,6*%
%TO.N,Net-(Q4-E)*%
X139005000Y-80010000D03*
%TO.P,J1,7,7*%
%TO.N,Net-(Q6-E)*%
X141775000Y-80010000D03*
%TO.P,J1,8,8*%
%TO.N,Net-(SW3-A)*%
X144545000Y-80010000D03*
%TO.P,J1,9,P9*%
%TO.N,unconnected-(J1-P9-Pad9)*%
X126540000Y-77470000D03*
%TO.P,J1,10,P10*%
%TO.N,unconnected-(J1-P10-Pad10)*%
X129310000Y-77470000D03*
%TO.P,J1,11,P111*%
%TO.N,Net-(J1-P111)*%
X132080000Y-77470000D03*
%TO.P,J1,12,P12*%
%TO.N,Net-(J1-P12)*%
X134850000Y-77470000D03*
%TO.P,J1,13,P13*%
%TO.N,Net-(J1-P13)*%
X137620000Y-77470000D03*
%TO.P,J1,14,P14*%
%TO.N,Net-(J1-P14)*%
X140390000Y-77470000D03*
%TO.P,J1,15,P15*%
%TO.N,Net-(J1-P15)*%
X143160000Y-77470000D03*
%TD*%
%TO.P,R3,1*%
%TO.N,Net-(Q3-B)*%
X113110000Y-125730000D03*
%TO.P,R3,2*%
%TO.N,Net-(A1-D10)*%
X118110000Y-125730000D03*
%TD*%
%TO.P,R2,1*%
%TO.N,Net-(Q2-B)*%
X128270000Y-143430000D03*
%TO.P,R2,2*%
%TO.N,Net-(A1-D11)*%
X128270000Y-138430000D03*
%TD*%
%TO.P,R4,1*%
%TO.N,Net-(Q4-B)*%
X113190000Y-118110000D03*
%TO.P,R4,2*%
%TO.N,Net-(A1-D9)*%
X118190000Y-118110000D03*
%TD*%
D12*
%TO.P,Q5,1,E*%
%TO.N,Net-(J1-P14)*%
X105090000Y-109220000D03*
D13*
%TO.P,Q5,2,B*%
%TO.N,Net-(Q5-B)*%
X107160000Y-110490000D03*
%TO.P,Q5,3,C*%
%TO.N,GND*%
X105090000Y-111760000D03*
%TD*%
D10*
%TO.P,SW3,1,A*%
%TO.N,GND*%
X112950000Y-81280000D03*
%TO.P,SW3,2,B*%
%TO.N,Net-(SW4-B)*%
X107950000Y-81280000D03*
%TD*%
%TO.P,R1,1*%
%TO.N,Net-(Q1-B)*%
X142240000Y-143430000D03*
%TO.P,R1,2*%
%TO.N,Net-(A1-D12)*%
X142240000Y-138430000D03*
%TD*%
D15*
%TO.P,Q1,1,E*%
%TO.N,Net-(Q1-E)*%
X140970000Y-151530000D03*
D16*
%TO.P,Q1,2,B*%
%TO.N,Net-(Q1-B)*%
X142240000Y-149460000D03*
%TO.P,Q1,3,C*%
%TO.N,GND*%
X143510000Y-151530000D03*
%TD*%
D14*
%TO.P,A1,1,D1/TX*%
%TO.N,unconnected-(A1-D1{slash}TX-Pad1)*%
X127000000Y-91440000D03*
D17*
%TO.P,A1,2,D0/RX*%
%TO.N,unconnected-(A1-D0{slash}RX-Pad2)*%
X127000000Y-93980000D03*
%TO.P,A1,3,~{RESET}*%
%TO.N,unconnected-(A1-~{RESET}-Pad3)*%
X127000000Y-96520000D03*
%TO.P,A1,4,GND*%
%TO.N,unconnected-(A1-GND-Pad4)*%
X127000000Y-99060000D03*
%TO.P,A1,5,D2*%
%TO.N,Net-(A1-D2)*%
X127000000Y-101600000D03*
%TO.P,A1,6,D3*%
%TO.N,Net-(A1-D3)*%
X127000000Y-104140000D03*
%TO.P,A1,7,D4*%
%TO.N,Net-(A1-D4)*%
X127000000Y-106680000D03*
%TO.P,A1,8,D5*%
%TO.N,unconnected-(A1-D5-Pad8)*%
X127000000Y-109220000D03*
%TO.P,A1,9,D6*%
%TO.N,Net-(A1-D6)*%
X127000000Y-111760000D03*
%TO.P,A1,10,D7*%
%TO.N,unconnected-(A1-D7-Pad10)*%
X127000000Y-114300000D03*
%TO.P,A1,11,D8*%
%TO.N,unconnected-(A1-D8-Pad11)*%
X127000000Y-116840000D03*
%TO.P,A1,12,D9*%
%TO.N,Net-(A1-D9)*%
X127000000Y-119380000D03*
%TO.P,A1,13,D10*%
%TO.N,Net-(A1-D10)*%
X127000000Y-121920000D03*
%TO.P,A1,14,D11*%
%TO.N,Net-(A1-D11)*%
X127000000Y-124460000D03*
%TO.P,A1,15,D12*%
%TO.N,Net-(A1-D12)*%
X127000000Y-127000000D03*
%TO.P,A1,16,D13*%
%TO.N,unconnected-(A1-D13-Pad16)*%
X142240000Y-127000000D03*
%TO.P,A1,17,3V3*%
%TO.N,unconnected-(A1-3V3-Pad17)*%
X142240000Y-124460000D03*
%TO.P,A1,18,AREF*%
%TO.N,unconnected-(A1-AREF-Pad18)*%
X142240000Y-121920000D03*
%TO.P,A1,19,A0*%
%TO.N,Net-(A1-A0)*%
X142240000Y-119380000D03*
%TO.P,A1,20,A1*%
%TO.N,unconnected-(A1-A1-Pad20)*%
X142240000Y-116840000D03*
%TO.P,A1,21,A2*%
%TO.N,unconnected-(A1-A2-Pad21)*%
X142240000Y-114300000D03*
%TO.P,A1,22,A3*%
%TO.N,unconnected-(A1-A3-Pad22)*%
X142240000Y-111760000D03*
%TO.P,A1,23,A4*%
%TO.N,unconnected-(A1-A4-Pad23)*%
X142240000Y-109220000D03*
%TO.P,A1,24,A5*%
%TO.N,unconnected-(A1-A5-Pad24)*%
X142240000Y-106680000D03*
%TO.P,A1,25,A6*%
%TO.N,unconnected-(A1-A6-Pad25)*%
X142240000Y-104140000D03*
%TO.P,A1,26,A7*%
%TO.N,unconnected-(A1-A7-Pad26)*%
X142240000Y-101600000D03*
%TO.P,A1,27,+5V*%
%TO.N,unconnected-(A1-+5V-Pad27)*%
X142240000Y-99060000D03*
%TO.P,A1,28,~{RESET}*%
%TO.N,unconnected-(A1-~{RESET}-Pad28)*%
X142240000Y-96520000D03*
%TO.P,A1,29,GND*%
%TO.N,GND*%
X142240000Y-93980000D03*
%TO.P,A1,30,VIN*%
%TO.N,Net-(A1-VIN)*%
X142240000Y-91440000D03*
%TD*%
D10*
%TO.P,R6,1*%
%TO.N,Net-(Q6-B)*%
X113190000Y-102870000D03*
%TO.P,R6,2*%
%TO.N,Net-(A1-D3)*%
X118190000Y-102870000D03*
%TD*%
D15*
%TO.P,Q2,1,E*%
%TO.N,Net-(J1-P12)*%
X127000000Y-151530000D03*
D16*
%TO.P,Q2,2,B*%
%TO.N,Net-(Q2-B)*%
X128270000Y-149460000D03*
%TO.P,Q2,3,C*%
%TO.N,GND*%
X129540000Y-151530000D03*
%TD*%
D18*
%TO.N,Net-(Q1-E)*%
X120370000Y-93105000D02*
X133465000Y-80010000D01*
X103415000Y-132625000D02*
X103415000Y-93555000D01*
X138895000Y-153205000D02*
X123995000Y-153205000D01*
X103865000Y-93105000D02*
X120370000Y-93105000D01*
X140970000Y-151130000D02*
X138895000Y-153205000D01*
X123995000Y-153205000D02*
X103415000Y-132625000D01*
X103415000Y-93555000D02*
X103865000Y-93105000D01*
%TO.N,Net-(Q3-E)*%
X140855991Y-76345000D02*
X137154009Y-76345000D01*
X105490000Y-124460000D02*
X110249009Y-124460000D01*
X110249009Y-124380000D02*
X126534009Y-108095000D01*
X141515000Y-77935991D02*
X141515000Y-77004009D01*
X126534009Y-108095000D02*
X127175991Y-108095000D01*
X137154009Y-76345000D02*
X136235000Y-77264009D01*
X127175991Y-108095000D02*
X140130000Y-95140991D01*
X140130000Y-95140991D02*
X140130000Y-79320991D01*
X136235000Y-77264009D02*
X136235000Y-80010000D01*
X141515000Y-77004009D02*
X140855991Y-76345000D01*
X110249009Y-124460000D02*
X110249009Y-124380000D01*
X140130000Y-79320991D02*
X141515000Y-77935991D01*
%TO.N,Net-(Q4-E)*%
X127320991Y-95250000D02*
X139005000Y-83565991D01*
X105570000Y-116840000D02*
X105570000Y-116519009D01*
X116679009Y-105410000D02*
X119380000Y-105410000D01*
X105570000Y-116519009D02*
X116679009Y-105410000D01*
X126679009Y-95250000D02*
X127320991Y-95250000D01*
X119380000Y-105410000D02*
X119380000Y-102549009D01*
X139005000Y-83565991D02*
X139005000Y-80010000D01*
X119380000Y-102549009D02*
X126679009Y-95250000D01*
%TO.N,Net-(SW3-A)*%
X158895000Y-109365000D02*
X158895000Y-92855000D01*
X146050000Y-80010000D02*
X144545000Y-80010000D01*
X158895000Y-92855000D02*
X146050000Y-80010000D01*
X160020000Y-110490000D02*
X158895000Y-109365000D01*
%TO.N,Net-(J1-P12)*%
X141965000Y-78122387D02*
X141965000Y-76817613D01*
X141965000Y-76817613D02*
X141042387Y-75895000D01*
X127000000Y-148880000D02*
X140580000Y-135300000D01*
X127000000Y-151130000D02*
X127000000Y-148880000D01*
X136425000Y-75895000D02*
X134850000Y-77470000D01*
X141042387Y-75895000D02*
X136425000Y-75895000D01*
X140580000Y-79507387D02*
X141965000Y-78122387D01*
X140580000Y-135300000D02*
X140580000Y-79507387D01*
%TO.N,Net-(J1-P14)*%
X137880000Y-80475991D02*
X137880000Y-79290000D01*
X105490000Y-108979009D02*
X116679009Y-97790000D01*
X118400000Y-97790000D02*
X134910000Y-81280000D01*
X139700000Y-77470000D02*
X140390000Y-77470000D01*
X137880000Y-79290000D02*
X139700000Y-77470000D01*
X116679009Y-97790000D02*
X118400000Y-97790000D01*
X134910000Y-81280000D02*
X137075991Y-81280000D01*
X105490000Y-109220000D02*
X105490000Y-108979009D01*
X137075991Y-81280000D02*
X137880000Y-80475991D01*
%TO.N,GND*%
X105570000Y-119380000D02*
X103945000Y-117755000D01*
X126125000Y-152755000D02*
X105490000Y-132120000D01*
X105490000Y-132120000D02*
X105490000Y-127000000D01*
X132435000Y-148235000D02*
X129540000Y-151130000D01*
X105490000Y-104140000D02*
X103865000Y-102515000D01*
X103865000Y-125375000D02*
X103865000Y-121085000D01*
X103865000Y-98145000D02*
X105490000Y-96520000D01*
X160020000Y-125730000D02*
X160020000Y-134620000D01*
X160020000Y-125730000D02*
X160020000Y-118110000D01*
X103945000Y-117755000D02*
X103945000Y-113305000D01*
X163509009Y-114620991D02*
X163509009Y-107629009D01*
X129540000Y-151130000D02*
X127915000Y-152755000D01*
X103865000Y-102515000D02*
X103865000Y-98145000D01*
X142771148Y-148235000D02*
X132435000Y-148235000D01*
X114220000Y-80010000D02*
X112950000Y-81280000D01*
X103945000Y-113305000D02*
X105490000Y-111760000D01*
X160020000Y-91440000D02*
X160020000Y-87630000D01*
X105490000Y-127000000D02*
X103865000Y-125375000D01*
X143365000Y-101455000D02*
X160020000Y-118110000D01*
X160020000Y-118110000D02*
X163509009Y-114620991D01*
X143510000Y-151130000D02*
X143510000Y-148973852D01*
X142240000Y-93980000D02*
X143365000Y-95105000D01*
X147320000Y-74930000D02*
X125730000Y-74930000D01*
X105490000Y-111760000D02*
X103865000Y-110135000D01*
X103865000Y-121085000D02*
X105570000Y-119380000D01*
X125155000Y-75505000D02*
X125155000Y-80010000D01*
X114220000Y-80010000D02*
X125155000Y-80010000D01*
X160020000Y-134620000D02*
X143510000Y-151130000D01*
X160020000Y-87630000D02*
X147320000Y-74930000D01*
X103865000Y-105765000D02*
X105490000Y-104140000D01*
X143510000Y-148973852D02*
X142771148Y-148235000D01*
X143365000Y-95105000D02*
X143365000Y-101455000D01*
X127915000Y-152755000D02*
X126125000Y-152755000D01*
X160020000Y-104140000D02*
X160020000Y-91440000D01*
X163509009Y-107629009D02*
X160020000Y-104140000D01*
X103865000Y-110135000D02*
X103865000Y-105765000D01*
X125730000Y-74930000D02*
X125155000Y-75505000D01*
%TO.N,Net-(J1-P111)*%
X144780000Y-76200000D02*
X143960000Y-75380000D01*
X144780000Y-77470000D02*
X144780000Y-76200000D01*
X143420000Y-78830000D02*
X144780000Y-77470000D01*
X143420000Y-88810000D02*
X143420000Y-78830000D01*
X143960000Y-75380000D02*
X134170000Y-75380000D01*
X155020000Y-104140000D02*
X143510000Y-92630000D01*
X134170000Y-75380000D02*
X132080000Y-77470000D01*
X143510000Y-88900000D02*
X143420000Y-88810000D01*
X143510000Y-92630000D02*
X143510000Y-88900000D01*
%TO.N,Net-(SW4-B)*%
X128300000Y-82405000D02*
X130695000Y-80010000D01*
X107950000Y-81280000D02*
X109075000Y-82405000D01*
X109075000Y-82405000D02*
X128300000Y-82405000D01*
%TD*%
M02*
