M48
; DRILL file {KiCad 7.0.10-7.0.10~ubuntu22.04.1} date Fri 16 Feb 2024 12:07:09 PM EST
; FORMAT={-:-/ absolute / inch / decimal}
; #@! TF.CreationDate,2024-02-16T12:07:09-05:00
; #@! TF.GenerationSoftware,Kicad,Pcbnew,7.0.10-7.0.10~ubuntu22.04.1
; #@! TF.FileFunction,Plated,1,2,PTH
FMAT,2
INCH
; #@! TA.AperFunction,Plated,PTH,ComponentDrill
T1C0.0295
; #@! TA.AperFunction,Plated,PTH,ComponentDrill
T2C0.0315
; #@! TA.AperFunction,Plated,PTH,ComponentDrill
T3C0.0394
%
G90
G05
T1
X4.1531Y-3.7
X4.1531Y-3.8
X4.1531Y-4.0
X4.1531Y-4.1
X4.1531Y-4.3
X4.1531Y-4.4
X4.1531Y-4.9
X4.1531Y-5.0
X4.1563Y-4.6
X4.1563Y-4.7
X4.2031Y-3.75
X4.2031Y-4.05
X4.2031Y-4.35
X4.2031Y-4.95
X4.2063Y-4.65
X5.0Y-5.95
X5.05Y-5.9
X5.1Y-5.95
X5.55Y-5.95
X5.6Y-5.9
X5.65Y-5.95
T2
X4.25Y-3.2
X4.4469Y-3.2
X4.4531Y-3.75
X4.4531Y-4.95
X4.4563Y-4.05
X4.4563Y-4.35
X4.4563Y-4.65
X4.65Y-3.75
X4.65Y-4.95
X4.6531Y-4.05
X4.6531Y-4.35
X4.6531Y-4.65
X5.05Y-5.45
X5.05Y-5.6469
X5.6Y-5.45
X5.6Y-5.6469
X6.1Y-4.65
X6.1031Y-3.6
X6.1031Y-4.1
X6.1031Y-4.35
X6.1031Y-4.95
X6.2Y-4.65
X6.3Y-3.6
X6.3Y-4.1
X6.3Y-4.35
X6.3Y-4.65
X6.3Y-4.95
T3
X4.9274Y-3.15
X4.9819Y-3.05
X5.0Y-3.6
X5.0Y-3.7
X5.0Y-3.8
X5.0Y-3.9
X5.0Y-4.0
X5.0Y-4.1
X5.0Y-4.2
X5.0Y-4.3
X5.0Y-4.4
X5.0Y-4.5
X5.0Y-4.6
X5.0Y-4.7
X5.0Y-4.8
X5.0Y-4.9
X5.0Y-5.0
X5.0364Y-3.15
X5.0909Y-3.05
X5.1455Y-3.15
X5.2Y-3.05
X5.2545Y-3.15
X5.3091Y-3.05
X5.3636Y-3.15
X5.4181Y-3.05
X5.4726Y-3.15
X5.5272Y-3.05
X5.5817Y-3.15
X5.6Y-3.6
X5.6Y-3.7
X5.6Y-3.8
X5.6Y-3.9
X5.6Y-4.0
X5.6Y-4.1
X5.6Y-4.2
X5.6Y-4.3
X5.6Y-4.4
X5.6Y-4.5
X5.6Y-4.6
X5.6Y-4.7
X5.6Y-4.8
X5.6Y-4.9
X5.6Y-5.0
X5.6362Y-3.05
X5.6907Y-3.15
M30
