%TF.GenerationSoftware,KiCad,Pcbnew,7.0.10-7.0.10~ubuntu22.04.1*%
%TF.CreationDate,2024-02-16T12:07:06-05:00*%
%TF.ProjectId,kicad,6b696361-642e-46b6-9963-61645f706362,rev?*%
%TF.SameCoordinates,Original*%
%TF.FileFunction,Legend,Top*%
%TF.FilePolarity,Positive*%
%FSLAX46Y46*%
G04 Gerber Fmt 4.6, Leading zero omitted, Abs format (unit mm)*
G04 Created by KiCad (PCBNEW 7.0.10-7.0.10~ubuntu22.04.1) date 2024-02-16 12:07:06*
%MOMM*%
%LPD*%
G01*
G04 APERTURE LIST*
%ADD10C,0.150000*%
%ADD11C,0.120000*%
G04 APERTURE END LIST*
D10*
X156186667Y-94347200D02*
X156329524Y-94394819D01*
X156329524Y-94394819D02*
X156567619Y-94394819D01*
X156567619Y-94394819D02*
X156662857Y-94347200D01*
X156662857Y-94347200D02*
X156710476Y-94299580D01*
X156710476Y-94299580D02*
X156758095Y-94204342D01*
X156758095Y-94204342D02*
X156758095Y-94109104D01*
X156758095Y-94109104D02*
X156710476Y-94013866D01*
X156710476Y-94013866D02*
X156662857Y-93966247D01*
X156662857Y-93966247D02*
X156567619Y-93918628D01*
X156567619Y-93918628D02*
X156377143Y-93871009D01*
X156377143Y-93871009D02*
X156281905Y-93823390D01*
X156281905Y-93823390D02*
X156234286Y-93775771D01*
X156234286Y-93775771D02*
X156186667Y-93680533D01*
X156186667Y-93680533D02*
X156186667Y-93585295D01*
X156186667Y-93585295D02*
X156234286Y-93490057D01*
X156234286Y-93490057D02*
X156281905Y-93442438D01*
X156281905Y-93442438D02*
X156377143Y-93394819D01*
X156377143Y-93394819D02*
X156615238Y-93394819D01*
X156615238Y-93394819D02*
X156758095Y-93442438D01*
X157091429Y-93394819D02*
X157329524Y-94394819D01*
X157329524Y-94394819D02*
X157520000Y-93680533D01*
X157520000Y-93680533D02*
X157710476Y-94394819D01*
X157710476Y-94394819D02*
X157948572Y-93394819D01*
X158281905Y-93490057D02*
X158329524Y-93442438D01*
X158329524Y-93442438D02*
X158424762Y-93394819D01*
X158424762Y-93394819D02*
X158662857Y-93394819D01*
X158662857Y-93394819D02*
X158758095Y-93442438D01*
X158758095Y-93442438D02*
X158805714Y-93490057D01*
X158805714Y-93490057D02*
X158853333Y-93585295D01*
X158853333Y-93585295D02*
X158853333Y-93680533D01*
X158853333Y-93680533D02*
X158805714Y-93823390D01*
X158805714Y-93823390D02*
X158234286Y-94394819D01*
X158234286Y-94394819D02*
X158853333Y-94394819D01*
X156884761Y-114904819D02*
X156551428Y-114428628D01*
X156313333Y-114904819D02*
X156313333Y-113904819D01*
X156313333Y-113904819D02*
X156694285Y-113904819D01*
X156694285Y-113904819D02*
X156789523Y-113952438D01*
X156789523Y-113952438D02*
X156837142Y-114000057D01*
X156837142Y-114000057D02*
X156884761Y-114095295D01*
X156884761Y-114095295D02*
X156884761Y-114238152D01*
X156884761Y-114238152D02*
X156837142Y-114333390D01*
X156837142Y-114333390D02*
X156789523Y-114381009D01*
X156789523Y-114381009D02*
X156694285Y-114428628D01*
X156694285Y-114428628D02*
X156313333Y-114428628D01*
X157170476Y-113904819D02*
X157503809Y-114904819D01*
X157503809Y-114904819D02*
X157837142Y-113904819D01*
X158694285Y-114904819D02*
X158122857Y-114904819D01*
X158408571Y-114904819D02*
X158408571Y-113904819D01*
X158408571Y-113904819D02*
X158313333Y-114047676D01*
X158313333Y-114047676D02*
X158218095Y-114142914D01*
X158218095Y-114142914D02*
X158122857Y-114190533D01*
X109770057Y-118205238D02*
X109722438Y-118300476D01*
X109722438Y-118300476D02*
X109627200Y-118395714D01*
X109627200Y-118395714D02*
X109484342Y-118538571D01*
X109484342Y-118538571D02*
X109436723Y-118633809D01*
X109436723Y-118633809D02*
X109436723Y-118729047D01*
X109674819Y-118681428D02*
X109627200Y-118776666D01*
X109627200Y-118776666D02*
X109531961Y-118871904D01*
X109531961Y-118871904D02*
X109341485Y-118919523D01*
X109341485Y-118919523D02*
X109008152Y-118919523D01*
X109008152Y-118919523D02*
X108817676Y-118871904D01*
X108817676Y-118871904D02*
X108722438Y-118776666D01*
X108722438Y-118776666D02*
X108674819Y-118681428D01*
X108674819Y-118681428D02*
X108674819Y-118490952D01*
X108674819Y-118490952D02*
X108722438Y-118395714D01*
X108722438Y-118395714D02*
X108817676Y-118300476D01*
X108817676Y-118300476D02*
X109008152Y-118252857D01*
X109008152Y-118252857D02*
X109341485Y-118252857D01*
X109341485Y-118252857D02*
X109531961Y-118300476D01*
X109531961Y-118300476D02*
X109627200Y-118395714D01*
X109627200Y-118395714D02*
X109674819Y-118490952D01*
X109674819Y-118490952D02*
X109674819Y-118681428D01*
X109008152Y-117395714D02*
X109674819Y-117395714D01*
X108627200Y-117633809D02*
X109341485Y-117871904D01*
X109341485Y-117871904D02*
X109341485Y-117252857D01*
X109770057Y-125825238D02*
X109722438Y-125920476D01*
X109722438Y-125920476D02*
X109627200Y-126015714D01*
X109627200Y-126015714D02*
X109484342Y-126158571D01*
X109484342Y-126158571D02*
X109436723Y-126253809D01*
X109436723Y-126253809D02*
X109436723Y-126349047D01*
X109674819Y-126301428D02*
X109627200Y-126396666D01*
X109627200Y-126396666D02*
X109531961Y-126491904D01*
X109531961Y-126491904D02*
X109341485Y-126539523D01*
X109341485Y-126539523D02*
X109008152Y-126539523D01*
X109008152Y-126539523D02*
X108817676Y-126491904D01*
X108817676Y-126491904D02*
X108722438Y-126396666D01*
X108722438Y-126396666D02*
X108674819Y-126301428D01*
X108674819Y-126301428D02*
X108674819Y-126110952D01*
X108674819Y-126110952D02*
X108722438Y-126015714D01*
X108722438Y-126015714D02*
X108817676Y-125920476D01*
X108817676Y-125920476D02*
X109008152Y-125872857D01*
X109008152Y-125872857D02*
X109341485Y-125872857D01*
X109341485Y-125872857D02*
X109531961Y-125920476D01*
X109531961Y-125920476D02*
X109627200Y-126015714D01*
X109627200Y-126015714D02*
X109674819Y-126110952D01*
X109674819Y-126110952D02*
X109674819Y-126301428D01*
X108674819Y-125539523D02*
X108674819Y-124920476D01*
X108674819Y-124920476D02*
X109055771Y-125253809D01*
X109055771Y-125253809D02*
X109055771Y-125110952D01*
X109055771Y-125110952D02*
X109103390Y-125015714D01*
X109103390Y-125015714D02*
X109151009Y-124968095D01*
X109151009Y-124968095D02*
X109246247Y-124920476D01*
X109246247Y-124920476D02*
X109484342Y-124920476D01*
X109484342Y-124920476D02*
X109579580Y-124968095D01*
X109579580Y-124968095D02*
X109627200Y-125015714D01*
X109627200Y-125015714D02*
X109674819Y-125110952D01*
X109674819Y-125110952D02*
X109674819Y-125396666D01*
X109674819Y-125396666D02*
X109627200Y-125491904D01*
X109627200Y-125491904D02*
X109579580Y-125539523D01*
X115443333Y-93204819D02*
X115110000Y-92728628D01*
X114871905Y-93204819D02*
X114871905Y-92204819D01*
X114871905Y-92204819D02*
X115252857Y-92204819D01*
X115252857Y-92204819D02*
X115348095Y-92252438D01*
X115348095Y-92252438D02*
X115395714Y-92300057D01*
X115395714Y-92300057D02*
X115443333Y-92395295D01*
X115443333Y-92395295D02*
X115443333Y-92538152D01*
X115443333Y-92538152D02*
X115395714Y-92633390D01*
X115395714Y-92633390D02*
X115348095Y-92681009D01*
X115348095Y-92681009D02*
X115252857Y-92728628D01*
X115252857Y-92728628D02*
X114871905Y-92728628D01*
X115776667Y-92204819D02*
X116443333Y-92204819D01*
X116443333Y-92204819D02*
X116014762Y-93204819D01*
X109770057Y-102965238D02*
X109722438Y-103060476D01*
X109722438Y-103060476D02*
X109627200Y-103155714D01*
X109627200Y-103155714D02*
X109484342Y-103298571D01*
X109484342Y-103298571D02*
X109436723Y-103393809D01*
X109436723Y-103393809D02*
X109436723Y-103489047D01*
X109674819Y-103441428D02*
X109627200Y-103536666D01*
X109627200Y-103536666D02*
X109531961Y-103631904D01*
X109531961Y-103631904D02*
X109341485Y-103679523D01*
X109341485Y-103679523D02*
X109008152Y-103679523D01*
X109008152Y-103679523D02*
X108817676Y-103631904D01*
X108817676Y-103631904D02*
X108722438Y-103536666D01*
X108722438Y-103536666D02*
X108674819Y-103441428D01*
X108674819Y-103441428D02*
X108674819Y-103250952D01*
X108674819Y-103250952D02*
X108722438Y-103155714D01*
X108722438Y-103155714D02*
X108817676Y-103060476D01*
X108817676Y-103060476D02*
X109008152Y-103012857D01*
X109008152Y-103012857D02*
X109341485Y-103012857D01*
X109341485Y-103012857D02*
X109531961Y-103060476D01*
X109531961Y-103060476D02*
X109627200Y-103155714D01*
X109627200Y-103155714D02*
X109674819Y-103250952D01*
X109674819Y-103250952D02*
X109674819Y-103441428D01*
X108674819Y-102155714D02*
X108674819Y-102346190D01*
X108674819Y-102346190D02*
X108722438Y-102441428D01*
X108722438Y-102441428D02*
X108770057Y-102489047D01*
X108770057Y-102489047D02*
X108912914Y-102584285D01*
X108912914Y-102584285D02*
X109103390Y-102631904D01*
X109103390Y-102631904D02*
X109484342Y-102631904D01*
X109484342Y-102631904D02*
X109579580Y-102584285D01*
X109579580Y-102584285D02*
X109627200Y-102536666D01*
X109627200Y-102536666D02*
X109674819Y-102441428D01*
X109674819Y-102441428D02*
X109674819Y-102250952D01*
X109674819Y-102250952D02*
X109627200Y-102155714D01*
X109627200Y-102155714D02*
X109579580Y-102108095D01*
X109579580Y-102108095D02*
X109484342Y-102060476D01*
X109484342Y-102060476D02*
X109246247Y-102060476D01*
X109246247Y-102060476D02*
X109151009Y-102108095D01*
X109151009Y-102108095D02*
X109103390Y-102155714D01*
X109103390Y-102155714D02*
X109055771Y-102250952D01*
X109055771Y-102250952D02*
X109055771Y-102441428D01*
X109055771Y-102441428D02*
X109103390Y-102536666D01*
X109103390Y-102536666D02*
X109151009Y-102584285D01*
X109151009Y-102584285D02*
X109246247Y-102631904D01*
X115523333Y-108444819D02*
X115190000Y-107968628D01*
X114951905Y-108444819D02*
X114951905Y-107444819D01*
X114951905Y-107444819D02*
X115332857Y-107444819D01*
X115332857Y-107444819D02*
X115428095Y-107492438D01*
X115428095Y-107492438D02*
X115475714Y-107540057D01*
X115475714Y-107540057D02*
X115523333Y-107635295D01*
X115523333Y-107635295D02*
X115523333Y-107778152D01*
X115523333Y-107778152D02*
X115475714Y-107873390D01*
X115475714Y-107873390D02*
X115428095Y-107921009D01*
X115428095Y-107921009D02*
X115332857Y-107968628D01*
X115332857Y-107968628D02*
X114951905Y-107968628D01*
X116428095Y-107444819D02*
X115951905Y-107444819D01*
X115951905Y-107444819D02*
X115904286Y-107921009D01*
X115904286Y-107921009D02*
X115951905Y-107873390D01*
X115951905Y-107873390D02*
X116047143Y-107825771D01*
X116047143Y-107825771D02*
X116285238Y-107825771D01*
X116285238Y-107825771D02*
X116380476Y-107873390D01*
X116380476Y-107873390D02*
X116428095Y-107921009D01*
X116428095Y-107921009D02*
X116475714Y-108016247D01*
X116475714Y-108016247D02*
X116475714Y-108254342D01*
X116475714Y-108254342D02*
X116428095Y-108349580D01*
X116428095Y-108349580D02*
X116380476Y-108397200D01*
X116380476Y-108397200D02*
X116285238Y-108444819D01*
X116285238Y-108444819D02*
X116047143Y-108444819D01*
X116047143Y-108444819D02*
X115951905Y-108397200D01*
X115951905Y-108397200D02*
X115904286Y-108349580D01*
X156186667Y-128637200D02*
X156329524Y-128684819D01*
X156329524Y-128684819D02*
X156567619Y-128684819D01*
X156567619Y-128684819D02*
X156662857Y-128637200D01*
X156662857Y-128637200D02*
X156710476Y-128589580D01*
X156710476Y-128589580D02*
X156758095Y-128494342D01*
X156758095Y-128494342D02*
X156758095Y-128399104D01*
X156758095Y-128399104D02*
X156710476Y-128303866D01*
X156710476Y-128303866D02*
X156662857Y-128256247D01*
X156662857Y-128256247D02*
X156567619Y-128208628D01*
X156567619Y-128208628D02*
X156377143Y-128161009D01*
X156377143Y-128161009D02*
X156281905Y-128113390D01*
X156281905Y-128113390D02*
X156234286Y-128065771D01*
X156234286Y-128065771D02*
X156186667Y-127970533D01*
X156186667Y-127970533D02*
X156186667Y-127875295D01*
X156186667Y-127875295D02*
X156234286Y-127780057D01*
X156234286Y-127780057D02*
X156281905Y-127732438D01*
X156281905Y-127732438D02*
X156377143Y-127684819D01*
X156377143Y-127684819D02*
X156615238Y-127684819D01*
X156615238Y-127684819D02*
X156758095Y-127732438D01*
X157091429Y-127684819D02*
X157329524Y-128684819D01*
X157329524Y-128684819D02*
X157520000Y-127970533D01*
X157520000Y-127970533D02*
X157710476Y-128684819D01*
X157710476Y-128684819D02*
X157948572Y-127684819D01*
X158853333Y-128684819D02*
X158281905Y-128684819D01*
X158567619Y-128684819D02*
X158567619Y-127684819D01*
X158567619Y-127684819D02*
X158472381Y-127827676D01*
X158472381Y-127827676D02*
X158377143Y-127922914D01*
X158377143Y-127922914D02*
X158281905Y-127970533D01*
X109770057Y-95345238D02*
X109722438Y-95440476D01*
X109722438Y-95440476D02*
X109627200Y-95535714D01*
X109627200Y-95535714D02*
X109484342Y-95678571D01*
X109484342Y-95678571D02*
X109436723Y-95773809D01*
X109436723Y-95773809D02*
X109436723Y-95869047D01*
X109674819Y-95821428D02*
X109627200Y-95916666D01*
X109627200Y-95916666D02*
X109531961Y-96011904D01*
X109531961Y-96011904D02*
X109341485Y-96059523D01*
X109341485Y-96059523D02*
X109008152Y-96059523D01*
X109008152Y-96059523D02*
X108817676Y-96011904D01*
X108817676Y-96011904D02*
X108722438Y-95916666D01*
X108722438Y-95916666D02*
X108674819Y-95821428D01*
X108674819Y-95821428D02*
X108674819Y-95630952D01*
X108674819Y-95630952D02*
X108722438Y-95535714D01*
X108722438Y-95535714D02*
X108817676Y-95440476D01*
X108817676Y-95440476D02*
X109008152Y-95392857D01*
X109008152Y-95392857D02*
X109341485Y-95392857D01*
X109341485Y-95392857D02*
X109531961Y-95440476D01*
X109531961Y-95440476D02*
X109627200Y-95535714D01*
X109627200Y-95535714D02*
X109674819Y-95630952D01*
X109674819Y-95630952D02*
X109674819Y-95821428D01*
X108674819Y-95059523D02*
X108674819Y-94392857D01*
X108674819Y-94392857D02*
X109674819Y-94821428D01*
X156186667Y-107047200D02*
X156329524Y-107094819D01*
X156329524Y-107094819D02*
X156567619Y-107094819D01*
X156567619Y-107094819D02*
X156662857Y-107047200D01*
X156662857Y-107047200D02*
X156710476Y-106999580D01*
X156710476Y-106999580D02*
X156758095Y-106904342D01*
X156758095Y-106904342D02*
X156758095Y-106809104D01*
X156758095Y-106809104D02*
X156710476Y-106713866D01*
X156710476Y-106713866D02*
X156662857Y-106666247D01*
X156662857Y-106666247D02*
X156567619Y-106618628D01*
X156567619Y-106618628D02*
X156377143Y-106571009D01*
X156377143Y-106571009D02*
X156281905Y-106523390D01*
X156281905Y-106523390D02*
X156234286Y-106475771D01*
X156234286Y-106475771D02*
X156186667Y-106380533D01*
X156186667Y-106380533D02*
X156186667Y-106285295D01*
X156186667Y-106285295D02*
X156234286Y-106190057D01*
X156234286Y-106190057D02*
X156281905Y-106142438D01*
X156281905Y-106142438D02*
X156377143Y-106094819D01*
X156377143Y-106094819D02*
X156615238Y-106094819D01*
X156615238Y-106094819D02*
X156758095Y-106142438D01*
X157091429Y-106094819D02*
X157329524Y-107094819D01*
X157329524Y-107094819D02*
X157520000Y-106380533D01*
X157520000Y-106380533D02*
X157710476Y-107094819D01*
X157710476Y-107094819D02*
X157948572Y-106094819D01*
X158758095Y-106428152D02*
X158758095Y-107094819D01*
X158520000Y-106047200D02*
X158281905Y-106761485D01*
X158281905Y-106761485D02*
X158900952Y-106761485D01*
X156186667Y-113397200D02*
X156329524Y-113444819D01*
X156329524Y-113444819D02*
X156567619Y-113444819D01*
X156567619Y-113444819D02*
X156662857Y-113397200D01*
X156662857Y-113397200D02*
X156710476Y-113349580D01*
X156710476Y-113349580D02*
X156758095Y-113254342D01*
X156758095Y-113254342D02*
X156758095Y-113159104D01*
X156758095Y-113159104D02*
X156710476Y-113063866D01*
X156710476Y-113063866D02*
X156662857Y-113016247D01*
X156662857Y-113016247D02*
X156567619Y-112968628D01*
X156567619Y-112968628D02*
X156377143Y-112921009D01*
X156377143Y-112921009D02*
X156281905Y-112873390D01*
X156281905Y-112873390D02*
X156234286Y-112825771D01*
X156234286Y-112825771D02*
X156186667Y-112730533D01*
X156186667Y-112730533D02*
X156186667Y-112635295D01*
X156186667Y-112635295D02*
X156234286Y-112540057D01*
X156234286Y-112540057D02*
X156281905Y-112492438D01*
X156281905Y-112492438D02*
X156377143Y-112444819D01*
X156377143Y-112444819D02*
X156615238Y-112444819D01*
X156615238Y-112444819D02*
X156758095Y-112492438D01*
X157091429Y-112444819D02*
X157329524Y-113444819D01*
X157329524Y-113444819D02*
X157520000Y-112730533D01*
X157520000Y-112730533D02*
X157710476Y-113444819D01*
X157710476Y-113444819D02*
X157948572Y-112444819D01*
X158805714Y-112444819D02*
X158329524Y-112444819D01*
X158329524Y-112444819D02*
X158281905Y-112921009D01*
X158281905Y-112921009D02*
X158329524Y-112873390D01*
X158329524Y-112873390D02*
X158424762Y-112825771D01*
X158424762Y-112825771D02*
X158662857Y-112825771D01*
X158662857Y-112825771D02*
X158758095Y-112873390D01*
X158758095Y-112873390D02*
X158805714Y-112921009D01*
X158805714Y-112921009D02*
X158853333Y-113016247D01*
X158853333Y-113016247D02*
X158853333Y-113254342D01*
X158853333Y-113254342D02*
X158805714Y-113349580D01*
X158805714Y-113349580D02*
X158758095Y-113397200D01*
X158758095Y-113397200D02*
X158662857Y-113444819D01*
X158662857Y-113444819D02*
X158424762Y-113444819D01*
X158424762Y-113444819D02*
X158329524Y-113397200D01*
X158329524Y-113397200D02*
X158281905Y-113349580D01*
X134516666Y-81264819D02*
X134516666Y-81979104D01*
X134516666Y-81979104D02*
X134469047Y-82121961D01*
X134469047Y-82121961D02*
X134373809Y-82217200D01*
X134373809Y-82217200D02*
X134230952Y-82264819D01*
X134230952Y-82264819D02*
X134135714Y-82264819D01*
X135516666Y-82264819D02*
X134945238Y-82264819D01*
X135230952Y-82264819D02*
X135230952Y-81264819D01*
X135230952Y-81264819D02*
X135135714Y-81407676D01*
X135135714Y-81407676D02*
X135040476Y-81502914D01*
X135040476Y-81502914D02*
X134945238Y-81550533D01*
X115443333Y-123684819D02*
X115110000Y-123208628D01*
X114871905Y-123684819D02*
X114871905Y-122684819D01*
X114871905Y-122684819D02*
X115252857Y-122684819D01*
X115252857Y-122684819D02*
X115348095Y-122732438D01*
X115348095Y-122732438D02*
X115395714Y-122780057D01*
X115395714Y-122780057D02*
X115443333Y-122875295D01*
X115443333Y-122875295D02*
X115443333Y-123018152D01*
X115443333Y-123018152D02*
X115395714Y-123113390D01*
X115395714Y-123113390D02*
X115348095Y-123161009D01*
X115348095Y-123161009D02*
X115252857Y-123208628D01*
X115252857Y-123208628D02*
X114871905Y-123208628D01*
X115776667Y-122684819D02*
X116395714Y-122684819D01*
X116395714Y-122684819D02*
X116062381Y-123065771D01*
X116062381Y-123065771D02*
X116205238Y-123065771D01*
X116205238Y-123065771D02*
X116300476Y-123113390D01*
X116300476Y-123113390D02*
X116348095Y-123161009D01*
X116348095Y-123161009D02*
X116395714Y-123256247D01*
X116395714Y-123256247D02*
X116395714Y-123494342D01*
X116395714Y-123494342D02*
X116348095Y-123589580D01*
X116348095Y-123589580D02*
X116300476Y-123637200D01*
X116300476Y-123637200D02*
X116205238Y-123684819D01*
X116205238Y-123684819D02*
X115919524Y-123684819D01*
X115919524Y-123684819D02*
X115824286Y-123637200D01*
X115824286Y-123637200D02*
X115776667Y-123589580D01*
X126224819Y-141096666D02*
X125748628Y-141429999D01*
X126224819Y-141668094D02*
X125224819Y-141668094D01*
X125224819Y-141668094D02*
X125224819Y-141287142D01*
X125224819Y-141287142D02*
X125272438Y-141191904D01*
X125272438Y-141191904D02*
X125320057Y-141144285D01*
X125320057Y-141144285D02*
X125415295Y-141096666D01*
X125415295Y-141096666D02*
X125558152Y-141096666D01*
X125558152Y-141096666D02*
X125653390Y-141144285D01*
X125653390Y-141144285D02*
X125701009Y-141191904D01*
X125701009Y-141191904D02*
X125748628Y-141287142D01*
X125748628Y-141287142D02*
X125748628Y-141668094D01*
X125320057Y-140715713D02*
X125272438Y-140668094D01*
X125272438Y-140668094D02*
X125224819Y-140572856D01*
X125224819Y-140572856D02*
X125224819Y-140334761D01*
X125224819Y-140334761D02*
X125272438Y-140239523D01*
X125272438Y-140239523D02*
X125320057Y-140191904D01*
X125320057Y-140191904D02*
X125415295Y-140144285D01*
X125415295Y-140144285D02*
X125510533Y-140144285D01*
X125510533Y-140144285D02*
X125653390Y-140191904D01*
X125653390Y-140191904D02*
X126224819Y-140763332D01*
X126224819Y-140763332D02*
X126224819Y-140144285D01*
X115523333Y-116064819D02*
X115190000Y-115588628D01*
X114951905Y-116064819D02*
X114951905Y-115064819D01*
X114951905Y-115064819D02*
X115332857Y-115064819D01*
X115332857Y-115064819D02*
X115428095Y-115112438D01*
X115428095Y-115112438D02*
X115475714Y-115160057D01*
X115475714Y-115160057D02*
X115523333Y-115255295D01*
X115523333Y-115255295D02*
X115523333Y-115398152D01*
X115523333Y-115398152D02*
X115475714Y-115493390D01*
X115475714Y-115493390D02*
X115428095Y-115541009D01*
X115428095Y-115541009D02*
X115332857Y-115588628D01*
X115332857Y-115588628D02*
X114951905Y-115588628D01*
X116380476Y-115398152D02*
X116380476Y-116064819D01*
X116142381Y-115017200D02*
X115904286Y-115731485D01*
X115904286Y-115731485D02*
X116523333Y-115731485D01*
X109770057Y-110585238D02*
X109722438Y-110680476D01*
X109722438Y-110680476D02*
X109627200Y-110775714D01*
X109627200Y-110775714D02*
X109484342Y-110918571D01*
X109484342Y-110918571D02*
X109436723Y-111013809D01*
X109436723Y-111013809D02*
X109436723Y-111109047D01*
X109674819Y-111061428D02*
X109627200Y-111156666D01*
X109627200Y-111156666D02*
X109531961Y-111251904D01*
X109531961Y-111251904D02*
X109341485Y-111299523D01*
X109341485Y-111299523D02*
X109008152Y-111299523D01*
X109008152Y-111299523D02*
X108817676Y-111251904D01*
X108817676Y-111251904D02*
X108722438Y-111156666D01*
X108722438Y-111156666D02*
X108674819Y-111061428D01*
X108674819Y-111061428D02*
X108674819Y-110870952D01*
X108674819Y-110870952D02*
X108722438Y-110775714D01*
X108722438Y-110775714D02*
X108817676Y-110680476D01*
X108817676Y-110680476D02*
X109008152Y-110632857D01*
X109008152Y-110632857D02*
X109341485Y-110632857D01*
X109341485Y-110632857D02*
X109531961Y-110680476D01*
X109531961Y-110680476D02*
X109627200Y-110775714D01*
X109627200Y-110775714D02*
X109674819Y-110870952D01*
X109674819Y-110870952D02*
X109674819Y-111061428D01*
X108674819Y-109728095D02*
X108674819Y-110204285D01*
X108674819Y-110204285D02*
X109151009Y-110251904D01*
X109151009Y-110251904D02*
X109103390Y-110204285D01*
X109103390Y-110204285D02*
X109055771Y-110109047D01*
X109055771Y-110109047D02*
X109055771Y-109870952D01*
X109055771Y-109870952D02*
X109103390Y-109775714D01*
X109103390Y-109775714D02*
X109151009Y-109728095D01*
X109151009Y-109728095D02*
X109246247Y-109680476D01*
X109246247Y-109680476D02*
X109484342Y-109680476D01*
X109484342Y-109680476D02*
X109579580Y-109728095D01*
X109579580Y-109728095D02*
X109627200Y-109775714D01*
X109627200Y-109775714D02*
X109674819Y-109870952D01*
X109674819Y-109870952D02*
X109674819Y-110109047D01*
X109674819Y-110109047D02*
X109627200Y-110204285D01*
X109627200Y-110204285D02*
X109579580Y-110251904D01*
X109116667Y-84187200D02*
X109259524Y-84234819D01*
X109259524Y-84234819D02*
X109497619Y-84234819D01*
X109497619Y-84234819D02*
X109592857Y-84187200D01*
X109592857Y-84187200D02*
X109640476Y-84139580D01*
X109640476Y-84139580D02*
X109688095Y-84044342D01*
X109688095Y-84044342D02*
X109688095Y-83949104D01*
X109688095Y-83949104D02*
X109640476Y-83853866D01*
X109640476Y-83853866D02*
X109592857Y-83806247D01*
X109592857Y-83806247D02*
X109497619Y-83758628D01*
X109497619Y-83758628D02*
X109307143Y-83711009D01*
X109307143Y-83711009D02*
X109211905Y-83663390D01*
X109211905Y-83663390D02*
X109164286Y-83615771D01*
X109164286Y-83615771D02*
X109116667Y-83520533D01*
X109116667Y-83520533D02*
X109116667Y-83425295D01*
X109116667Y-83425295D02*
X109164286Y-83330057D01*
X109164286Y-83330057D02*
X109211905Y-83282438D01*
X109211905Y-83282438D02*
X109307143Y-83234819D01*
X109307143Y-83234819D02*
X109545238Y-83234819D01*
X109545238Y-83234819D02*
X109688095Y-83282438D01*
X110021429Y-83234819D02*
X110259524Y-84234819D01*
X110259524Y-84234819D02*
X110450000Y-83520533D01*
X110450000Y-83520533D02*
X110640476Y-84234819D01*
X110640476Y-84234819D02*
X110878572Y-83234819D01*
X111164286Y-83234819D02*
X111783333Y-83234819D01*
X111783333Y-83234819D02*
X111450000Y-83615771D01*
X111450000Y-83615771D02*
X111592857Y-83615771D01*
X111592857Y-83615771D02*
X111688095Y-83663390D01*
X111688095Y-83663390D02*
X111735714Y-83711009D01*
X111735714Y-83711009D02*
X111783333Y-83806247D01*
X111783333Y-83806247D02*
X111783333Y-84044342D01*
X111783333Y-84044342D02*
X111735714Y-84139580D01*
X111735714Y-84139580D02*
X111688095Y-84187200D01*
X111688095Y-84187200D02*
X111592857Y-84234819D01*
X111592857Y-84234819D02*
X111307143Y-84234819D01*
X111307143Y-84234819D02*
X111211905Y-84187200D01*
X111211905Y-84187200D02*
X111164286Y-84139580D01*
X140194819Y-141096666D02*
X139718628Y-141429999D01*
X140194819Y-141668094D02*
X139194819Y-141668094D01*
X139194819Y-141668094D02*
X139194819Y-141287142D01*
X139194819Y-141287142D02*
X139242438Y-141191904D01*
X139242438Y-141191904D02*
X139290057Y-141144285D01*
X139290057Y-141144285D02*
X139385295Y-141096666D01*
X139385295Y-141096666D02*
X139528152Y-141096666D01*
X139528152Y-141096666D02*
X139623390Y-141144285D01*
X139623390Y-141144285D02*
X139671009Y-141191904D01*
X139671009Y-141191904D02*
X139718628Y-141287142D01*
X139718628Y-141287142D02*
X139718628Y-141668094D01*
X140194819Y-140144285D02*
X140194819Y-140715713D01*
X140194819Y-140429999D02*
X139194819Y-140429999D01*
X139194819Y-140429999D02*
X139337676Y-140525237D01*
X139337676Y-140525237D02*
X139432914Y-140620475D01*
X139432914Y-140620475D02*
X139480533Y-140715713D01*
X140874761Y-147870057D02*
X140779523Y-147822438D01*
X140779523Y-147822438D02*
X140684285Y-147727200D01*
X140684285Y-147727200D02*
X140541428Y-147584342D01*
X140541428Y-147584342D02*
X140446190Y-147536723D01*
X140446190Y-147536723D02*
X140350952Y-147536723D01*
X140398571Y-147774819D02*
X140303333Y-147727200D01*
X140303333Y-147727200D02*
X140208095Y-147631961D01*
X140208095Y-147631961D02*
X140160476Y-147441485D01*
X140160476Y-147441485D02*
X140160476Y-147108152D01*
X140160476Y-147108152D02*
X140208095Y-146917676D01*
X140208095Y-146917676D02*
X140303333Y-146822438D01*
X140303333Y-146822438D02*
X140398571Y-146774819D01*
X140398571Y-146774819D02*
X140589047Y-146774819D01*
X140589047Y-146774819D02*
X140684285Y-146822438D01*
X140684285Y-146822438D02*
X140779523Y-146917676D01*
X140779523Y-146917676D02*
X140827142Y-147108152D01*
X140827142Y-147108152D02*
X140827142Y-147441485D01*
X140827142Y-147441485D02*
X140779523Y-147631961D01*
X140779523Y-147631961D02*
X140684285Y-147727200D01*
X140684285Y-147727200D02*
X140589047Y-147774819D01*
X140589047Y-147774819D02*
X140398571Y-147774819D01*
X141779523Y-147774819D02*
X141208095Y-147774819D01*
X141493809Y-147774819D02*
X141493809Y-146774819D01*
X141493809Y-146774819D02*
X141398571Y-146917676D01*
X141398571Y-146917676D02*
X141303333Y-147012914D01*
X141303333Y-147012914D02*
X141208095Y-147060533D01*
X133730714Y-85268773D02*
X134206904Y-85268773D01*
X133635476Y-85554488D02*
X133968809Y-84554488D01*
X133968809Y-84554488D02*
X134302142Y-85554488D01*
X135159285Y-85554488D02*
X134587857Y-85554488D01*
X134873571Y-85554488D02*
X134873571Y-84554488D01*
X134873571Y-84554488D02*
X134778333Y-84697345D01*
X134778333Y-84697345D02*
X134683095Y-84792583D01*
X134683095Y-84792583D02*
X134587857Y-84840202D01*
X133358095Y-126454819D02*
X133358095Y-127264342D01*
X133358095Y-127264342D02*
X133405714Y-127359580D01*
X133405714Y-127359580D02*
X133453333Y-127407200D01*
X133453333Y-127407200D02*
X133548571Y-127454819D01*
X133548571Y-127454819D02*
X133739047Y-127454819D01*
X133739047Y-127454819D02*
X133834285Y-127407200D01*
X133834285Y-127407200D02*
X133881904Y-127359580D01*
X133881904Y-127359580D02*
X133929523Y-127264342D01*
X133929523Y-127264342D02*
X133929523Y-126454819D01*
X134358095Y-127407200D02*
X134500952Y-127454819D01*
X134500952Y-127454819D02*
X134739047Y-127454819D01*
X134739047Y-127454819D02*
X134834285Y-127407200D01*
X134834285Y-127407200D02*
X134881904Y-127359580D01*
X134881904Y-127359580D02*
X134929523Y-127264342D01*
X134929523Y-127264342D02*
X134929523Y-127169104D01*
X134929523Y-127169104D02*
X134881904Y-127073866D01*
X134881904Y-127073866D02*
X134834285Y-127026247D01*
X134834285Y-127026247D02*
X134739047Y-126978628D01*
X134739047Y-126978628D02*
X134548571Y-126931009D01*
X134548571Y-126931009D02*
X134453333Y-126883390D01*
X134453333Y-126883390D02*
X134405714Y-126835771D01*
X134405714Y-126835771D02*
X134358095Y-126740533D01*
X134358095Y-126740533D02*
X134358095Y-126645295D01*
X134358095Y-126645295D02*
X134405714Y-126550057D01*
X134405714Y-126550057D02*
X134453333Y-126502438D01*
X134453333Y-126502438D02*
X134548571Y-126454819D01*
X134548571Y-126454819D02*
X134786666Y-126454819D01*
X134786666Y-126454819D02*
X134929523Y-126502438D01*
X135691428Y-126931009D02*
X135834285Y-126978628D01*
X135834285Y-126978628D02*
X135881904Y-127026247D01*
X135881904Y-127026247D02*
X135929523Y-127121485D01*
X135929523Y-127121485D02*
X135929523Y-127264342D01*
X135929523Y-127264342D02*
X135881904Y-127359580D01*
X135881904Y-127359580D02*
X135834285Y-127407200D01*
X135834285Y-127407200D02*
X135739047Y-127454819D01*
X135739047Y-127454819D02*
X135358095Y-127454819D01*
X135358095Y-127454819D02*
X135358095Y-126454819D01*
X135358095Y-126454819D02*
X135691428Y-126454819D01*
X135691428Y-126454819D02*
X135786666Y-126502438D01*
X135786666Y-126502438D02*
X135834285Y-126550057D01*
X135834285Y-126550057D02*
X135881904Y-126645295D01*
X135881904Y-126645295D02*
X135881904Y-126740533D01*
X135881904Y-126740533D02*
X135834285Y-126835771D01*
X135834285Y-126835771D02*
X135786666Y-126883390D01*
X135786666Y-126883390D02*
X135691428Y-126931009D01*
X135691428Y-126931009D02*
X135358095Y-126931009D01*
X115523333Y-100824819D02*
X115190000Y-100348628D01*
X114951905Y-100824819D02*
X114951905Y-99824819D01*
X114951905Y-99824819D02*
X115332857Y-99824819D01*
X115332857Y-99824819D02*
X115428095Y-99872438D01*
X115428095Y-99872438D02*
X115475714Y-99920057D01*
X115475714Y-99920057D02*
X115523333Y-100015295D01*
X115523333Y-100015295D02*
X115523333Y-100158152D01*
X115523333Y-100158152D02*
X115475714Y-100253390D01*
X115475714Y-100253390D02*
X115428095Y-100301009D01*
X115428095Y-100301009D02*
X115332857Y-100348628D01*
X115332857Y-100348628D02*
X114951905Y-100348628D01*
X116380476Y-99824819D02*
X116190000Y-99824819D01*
X116190000Y-99824819D02*
X116094762Y-99872438D01*
X116094762Y-99872438D02*
X116047143Y-99920057D01*
X116047143Y-99920057D02*
X115951905Y-100062914D01*
X115951905Y-100062914D02*
X115904286Y-100253390D01*
X115904286Y-100253390D02*
X115904286Y-100634342D01*
X115904286Y-100634342D02*
X115951905Y-100729580D01*
X115951905Y-100729580D02*
X115999524Y-100777200D01*
X115999524Y-100777200D02*
X116094762Y-100824819D01*
X116094762Y-100824819D02*
X116285238Y-100824819D01*
X116285238Y-100824819D02*
X116380476Y-100777200D01*
X116380476Y-100777200D02*
X116428095Y-100729580D01*
X116428095Y-100729580D02*
X116475714Y-100634342D01*
X116475714Y-100634342D02*
X116475714Y-100396247D01*
X116475714Y-100396247D02*
X116428095Y-100301009D01*
X116428095Y-100301009D02*
X116380476Y-100253390D01*
X116380476Y-100253390D02*
X116285238Y-100205771D01*
X116285238Y-100205771D02*
X116094762Y-100205771D01*
X116094762Y-100205771D02*
X115999524Y-100253390D01*
X115999524Y-100253390D02*
X115951905Y-100301009D01*
X115951905Y-100301009D02*
X115904286Y-100396247D01*
X126904761Y-147870057D02*
X126809523Y-147822438D01*
X126809523Y-147822438D02*
X126714285Y-147727200D01*
X126714285Y-147727200D02*
X126571428Y-147584342D01*
X126571428Y-147584342D02*
X126476190Y-147536723D01*
X126476190Y-147536723D02*
X126380952Y-147536723D01*
X126428571Y-147774819D02*
X126333333Y-147727200D01*
X126333333Y-147727200D02*
X126238095Y-147631961D01*
X126238095Y-147631961D02*
X126190476Y-147441485D01*
X126190476Y-147441485D02*
X126190476Y-147108152D01*
X126190476Y-147108152D02*
X126238095Y-146917676D01*
X126238095Y-146917676D02*
X126333333Y-146822438D01*
X126333333Y-146822438D02*
X126428571Y-146774819D01*
X126428571Y-146774819D02*
X126619047Y-146774819D01*
X126619047Y-146774819D02*
X126714285Y-146822438D01*
X126714285Y-146822438D02*
X126809523Y-146917676D01*
X126809523Y-146917676D02*
X126857142Y-147108152D01*
X126857142Y-147108152D02*
X126857142Y-147441485D01*
X126857142Y-147441485D02*
X126809523Y-147631961D01*
X126809523Y-147631961D02*
X126714285Y-147727200D01*
X126714285Y-147727200D02*
X126619047Y-147774819D01*
X126619047Y-147774819D02*
X126428571Y-147774819D01*
X127238095Y-146870057D02*
X127285714Y-146822438D01*
X127285714Y-146822438D02*
X127380952Y-146774819D01*
X127380952Y-146774819D02*
X127619047Y-146774819D01*
X127619047Y-146774819D02*
X127714285Y-146822438D01*
X127714285Y-146822438D02*
X127761904Y-146870057D01*
X127761904Y-146870057D02*
X127809523Y-146965295D01*
X127809523Y-146965295D02*
X127809523Y-147060533D01*
X127809523Y-147060533D02*
X127761904Y-147203390D01*
X127761904Y-147203390D02*
X127190476Y-147774819D01*
X127190476Y-147774819D02*
X127809523Y-147774819D01*
D11*
%TO.C,SW2*%
X160140000Y-92810000D02*
X160140000Y-92495000D01*
X160140000Y-92810000D02*
X154900000Y-92810000D01*
X160140000Y-90385000D02*
X160140000Y-90070000D01*
X160140000Y-90070000D02*
X154900000Y-90070000D01*
X154900000Y-92810000D02*
X154900000Y-92495000D01*
X154900000Y-90385000D02*
X154900000Y-90070000D01*
%TO.C,RV1*%
X152595000Y-115580000D02*
X152595000Y-120650000D01*
X152595000Y-115580000D02*
X162365000Y-115580000D01*
X152595000Y-120650000D02*
X162365000Y-120650000D01*
X162365000Y-115580000D02*
X162365000Y-120650000D01*
%TO.C,Q4*%
X103720000Y-116310000D02*
X103720000Y-119910000D01*
X108019999Y-117290000D02*
G75*
G03*
X103728260Y-116298126I-2449999J-820000D01*
G01*
X103742316Y-119918445D02*
G75*
G03*
X108020000Y-118890000I1827684J1808445D01*
G01*
%TO.C,Q3*%
X103640000Y-123930000D02*
X103640000Y-127530000D01*
X107939999Y-124910000D02*
G75*
G03*
X103648260Y-123918126I-2449999J-820000D01*
G01*
X103662316Y-127538445D02*
G75*
G03*
X107940000Y-126510000I1827684J1808445D01*
G01*
%TO.C,R7*%
X112990000Y-93880000D02*
X112990000Y-94195000D01*
X112990000Y-93880000D02*
X118230000Y-93880000D01*
X112990000Y-96305000D02*
X112990000Y-96620000D01*
X112990000Y-96620000D02*
X118230000Y-96620000D01*
X118230000Y-93880000D02*
X118230000Y-94195000D01*
X118230000Y-96305000D02*
X118230000Y-96620000D01*
%TO.C,Q6*%
X103640000Y-101070000D02*
X103640000Y-104670000D01*
X107939999Y-102050000D02*
G75*
G03*
X103648260Y-101058126I-2449999J-820000D01*
G01*
X103662316Y-104678445D02*
G75*
G03*
X107940000Y-103650000I1827684J1808445D01*
G01*
%TO.C,R5*%
X113070000Y-109120000D02*
X113070000Y-109435000D01*
X113070000Y-109120000D02*
X118310000Y-109120000D01*
X113070000Y-111545000D02*
X113070000Y-111860000D01*
X113070000Y-111860000D02*
X118310000Y-111860000D01*
X118310000Y-109120000D02*
X118310000Y-109435000D01*
X118310000Y-111545000D02*
X118310000Y-111860000D01*
%TO.C,SW1*%
X160140000Y-127100000D02*
X160140000Y-126785000D01*
X160140000Y-127100000D02*
X154900000Y-127100000D01*
X160140000Y-124675000D02*
X160140000Y-124360000D01*
X160140000Y-124360000D02*
X154900000Y-124360000D01*
X154900000Y-127100000D02*
X154900000Y-126785000D01*
X154900000Y-124675000D02*
X154900000Y-124360000D01*
%TO.C,Q7*%
X103640000Y-93450000D02*
X103640000Y-97050000D01*
X107939999Y-94430000D02*
G75*
G03*
X103648260Y-93438126I-2449999J-820000D01*
G01*
X103662316Y-97058445D02*
G75*
G03*
X107940000Y-96030000I1827684J1808445D01*
G01*
%TO.C,SW4*%
X160140000Y-105510000D02*
X160140000Y-105195000D01*
X160140000Y-105510000D02*
X154900000Y-105510000D01*
X160140000Y-103085000D02*
X160140000Y-102770000D01*
X160140000Y-102770000D02*
X154900000Y-102770000D01*
X154900000Y-105510000D02*
X154900000Y-105195000D01*
X154900000Y-103085000D02*
X154900000Y-102770000D01*
%TO.C,SW5*%
X160140000Y-111860000D02*
X160140000Y-111545000D01*
X160140000Y-111860000D02*
X154900000Y-111860000D01*
X160140000Y-109435000D02*
X160140000Y-109120000D01*
X160140000Y-109120000D02*
X154900000Y-109120000D01*
X154900000Y-111860000D02*
X154900000Y-111545000D01*
X154900000Y-109435000D02*
X154900000Y-109120000D01*
%TO.C,J1*%
X147610000Y-72230000D02*
X145605000Y-72230000D01*
X147610000Y-68130000D02*
X147610000Y-72230000D01*
X145605000Y-81070000D02*
X124095000Y-81070000D01*
X145605000Y-72230000D02*
X145605000Y-81070000D01*
X125405000Y-81764338D02*
X124905000Y-81764338D01*
X125155000Y-81331325D02*
X125405000Y-81764338D01*
X124905000Y-81764338D02*
X125155000Y-81331325D01*
X124095000Y-81070000D02*
X124095000Y-72230000D01*
X124095000Y-72230000D02*
X122090000Y-72230000D01*
X122090000Y-72230000D02*
X122090000Y-68130000D01*
%TO.C,R3*%
X112990000Y-124360000D02*
X112990000Y-124675000D01*
X112990000Y-124360000D02*
X118230000Y-124360000D01*
X112990000Y-126785000D02*
X112990000Y-127100000D01*
X112990000Y-127100000D02*
X118230000Y-127100000D01*
X118230000Y-124360000D02*
X118230000Y-124675000D01*
X118230000Y-126785000D02*
X118230000Y-127100000D01*
%TO.C,R2*%
X126900000Y-143550000D02*
X127215000Y-143550000D01*
X126900000Y-143550000D02*
X126900000Y-138310000D01*
X129325000Y-143550000D02*
X129640000Y-143550000D01*
X129640000Y-143550000D02*
X129640000Y-138310000D01*
X126900000Y-138310000D02*
X127215000Y-138310000D01*
X129325000Y-138310000D02*
X129640000Y-138310000D01*
%TO.C,R4*%
X113070000Y-116740000D02*
X113070000Y-117055000D01*
X113070000Y-116740000D02*
X118310000Y-116740000D01*
X113070000Y-119165000D02*
X113070000Y-119480000D01*
X113070000Y-119480000D02*
X118310000Y-119480000D01*
X118310000Y-116740000D02*
X118310000Y-117055000D01*
X118310000Y-119165000D02*
X118310000Y-119480000D01*
%TO.C,Q5*%
X103640000Y-108690000D02*
X103640000Y-112290000D01*
X107939999Y-109670000D02*
G75*
G03*
X103648260Y-108678126I-2449999J-820000D01*
G01*
X103662316Y-112298445D02*
G75*
G03*
X107940000Y-111270000I1827684J1808445D01*
G01*
%TO.C,SW3*%
X113070000Y-82650000D02*
X113070000Y-82335000D01*
X113070000Y-82650000D02*
X107830000Y-82650000D01*
X113070000Y-80225000D02*
X113070000Y-79910000D01*
X113070000Y-79910000D02*
X107830000Y-79910000D01*
X107830000Y-82650000D02*
X107830000Y-82335000D01*
X107830000Y-80225000D02*
X107830000Y-79910000D01*
%TO.C,R1*%
X140870000Y-143550000D02*
X141185000Y-143550000D01*
X140870000Y-143550000D02*
X140870000Y-138310000D01*
X143295000Y-143550000D02*
X143610000Y-143550000D01*
X143610000Y-143550000D02*
X143610000Y-138310000D01*
X140870000Y-138310000D02*
X141185000Y-138310000D01*
X143295000Y-138310000D02*
X143610000Y-138310000D01*
%TO.C,Q1*%
X140440000Y-152980000D02*
X144040000Y-152980000D01*
X141420000Y-148680001D02*
G75*
G03*
X140428126Y-152971740I820000J-2449999D01*
G01*
X144048445Y-152957684D02*
G75*
G03*
X143020000Y-148680000I-1808445J1827684D01*
G01*
%TO.C,A1*%
X125600000Y-87500000D02*
X125600000Y-90170000D01*
X125600000Y-92710000D02*
X125600000Y-130940000D01*
X125600000Y-130940000D02*
X130680000Y-130940000D01*
X128270000Y-90170000D02*
X125600000Y-90170000D01*
X128270000Y-92710000D02*
X125600000Y-92710000D01*
X128270000Y-92710000D02*
X128270000Y-90170000D01*
X128270000Y-92710000D02*
X128270000Y-128270000D01*
X128270000Y-128270000D02*
X125600000Y-128270000D01*
X130680000Y-123060000D02*
X138560000Y-123060000D01*
X130680000Y-133480000D02*
X130680000Y-123060000D01*
X138560000Y-123060000D02*
X138560000Y-133480000D01*
X138560000Y-133480000D02*
X130680000Y-133480000D01*
X140970000Y-90170000D02*
X140970000Y-128270000D01*
X140970000Y-90170000D02*
X143640000Y-90170000D01*
X140970000Y-128270000D02*
X143640000Y-128270000D01*
X143640000Y-87500000D02*
X125600000Y-87500000D01*
X143640000Y-130940000D02*
X138560000Y-130940000D01*
X143640000Y-130940000D02*
X143640000Y-87500000D01*
%TO.C,R6*%
X113070000Y-101500000D02*
X113070000Y-101815000D01*
X113070000Y-101500000D02*
X118310000Y-101500000D01*
X113070000Y-103925000D02*
X113070000Y-104240000D01*
X113070000Y-104240000D02*
X118310000Y-104240000D01*
X118310000Y-101500000D02*
X118310000Y-101815000D01*
X118310000Y-103925000D02*
X118310000Y-104240000D01*
%TO.C,Q2*%
X126470000Y-152980000D02*
X130070000Y-152980000D01*
X127450000Y-148680001D02*
G75*
G03*
X126458126Y-152971740I820000J-2449999D01*
G01*
X130078445Y-152957684D02*
G75*
G03*
X129050000Y-148680000I-1808445J1827684D01*
G01*
%TD*%
M02*
