<?xml version="1.0" encoding="UTF-8"?>
<!-- Generator: Circuit Diagram, cdlibrary.dll 4.0.0.0 -->
<svg width="980" height="580" version="1.1" xmlns="http://www.w3.org/2000/svg">
 <rect width="980" height="580" fill="#fff" stop-color="#000000" stroke-width="164.41"/>
 <g stroke="#000" stroke-linecap="square" stroke-width="2">
  <line x1="70" x2="70" y1="370" y2="380"/>
  <line x1="70" x2="140" y1="370" y2="370"/>
  <line x1="140" x2="140" y1="370" y2="490"/>
  <line x1="140" x2="300" y1="490" y2="490"/>
  <line x1="70" x2="70" y1="430" y2="510"/>
  <line x1="70" x2="250" y1="510" y2="510"/>
  <line x1="100" x2="300" y1="410" y2="410"/>
  <line x1="70" x2="70" y1="380" y2="390"/>
  <line x1="70" x2="70" y1="430" y2="430"/>
  <path d="m70 390v2l-7 3 14 6-14 6 14 6-14 6 14 6-7 3v2" fill-opacity="0"/>
 </g>
 <text transform="rotate(0 56 410)" x="56" y="410" dominant-baseline="middle" font-family="Arial" font-size="11px" text-anchor="end">5 kΩ</text>
 <g stroke="#000" stroke-linecap="square" stroke-width="2">
  <path d="m70 390m16 14-6 6 6 6m-5-6h18" fill-opacity="0"/>
  <line x1="250" x2="300" y1="510" y2="510"/>
  <line x1="250" x2="250" y1="510" y2="538"/>
  <line x1="242" x2="258" y1="538" y2="538"/>
  <line x1="245" x2="255" y1="544" y2="544"/>
  <line x1="248" x2="252" y1="550" y2="550"/>
  <line x1="380" x2="460" y1="480" y2="480"/>
  <line x1="460" x2="460" y1="330" y2="480"/>
  <line x1="160" x2="460" y1="330" y2="330"/>
  <line x1="280" x2="420" y1="310" y2="310"/>
  <line x1="420" x2="420" y1="310" y2="470"/>
  <line x1="380" x2="420" y1="470" y2="470"/>
  <line x1="100" x2="100" y1="140" y2="158"/>
  <line x1="92" x2="108" y1="158" y2="158"/>
  <line x1="95" x2="105" y1="164" y2="164"/>
  <line x1="98" x2="102" y1="170" y2="170"/>
  <line x1="100" x2="130" y1="140" y2="140"/>
  <line x1="210" x2="210" y1="30" y2="140"/>
  <line x1="180" x2="210" y1="140" y2="140"/>
  <line x1="160" x2="160" y1="260" y2="330"/>
  <line x1="160" x2="160" y1="180" y2="200"/>
  <line x1="160" x2="160" y1="240" y2="260"/>
  <path d="m160 200v2l-7 3 14 6-14 6 14 6-14 6 14 6-7 3v2" fill-opacity="0"/>
 </g>
 <text transform="rotate(0 146 220)" x="146" y="220" dominant-baseline="middle" font-family="Arial" font-size="11px" text-anchor="end">10 kΩ</text>
 <g stroke="#000">
  <g stroke-linecap="square">
   <g stroke-width="2">
    <line x1="180" x2="173" y1="140" y2="140"/>
    <line x1="147" x2="130" y1="140" y2="140"/>
    <line x1="160" x2="160" y1="180" y2="154"/>
   </g>
   <line x1="168" x2="152" y1="154.5" y2="154.5" stroke-width="3"/>
   <line x1="173" x2="164" y1="140" y2="154.5" stroke-width="2"/>
   <line x1="156" x2="147" y1="154.5" y2="140" stroke-width="2"/>
  </g>
  <ellipse cx="160" cy="150" rx="16" ry="16" fill-opacity="0" stroke-width="2"/>
  <g stroke-linecap="square" stroke-width="2">
   <path d="m153 148 2-4-7-1 4 6 1-2"/>
   <line x1="220" x2="220" y1="140" y2="158"/>
   <line x1="212" x2="228" y1="158" y2="158"/>
   <line x1="215" x2="225" y1="164" y2="164"/>
   <line x1="218" x2="222" y1="170" y2="170"/>
   <line x1="220" x2="250" y1="140" y2="140"/>
   <line x1="330" x2="330" y1="30" y2="140"/>
   <line x1="300" x2="330" y1="140" y2="140"/>
   <line x1="280" x2="280" y1="260" y2="310"/>
   <line x1="280" x2="280" y1="180" y2="200"/>
   <line x1="280" x2="280" y1="240" y2="260"/>
   <path d="m280 200v2l-7 3 14 6-14 6 14 6-14 6 14 6-7 3v2" fill-opacity="0"/>
  </g>
 </g>
 <text transform="rotate(0 266 220)" x="266" y="220" dominant-baseline="middle" font-family="Arial" font-size="11px" text-anchor="end">10 kΩ</text>
 <g stroke="#000">
  <g stroke-linecap="square">
   <g stroke-width="2">
    <line x1="300" x2="293" y1="140" y2="140"/>
    <line x1="267" x2="250" y1="140" y2="140"/>
    <line x1="280" x2="280" y1="180" y2="154"/>
   </g>
   <line x1="288" x2="272" y1="154.5" y2="154.5" stroke-width="3"/>
   <line x1="293" x2="284" y1="140" y2="154.5" stroke-width="2"/>
   <line x1="276" x2="267" y1="154.5" y2="140" stroke-width="2"/>
  </g>
  <ellipse cx="280" cy="150" rx="16" ry="16" fill-opacity="0" stroke-width="2"/>
  <g stroke-linecap="square" stroke-width="2">
   <path d="m273 148 2-4-7-1 4 6 1-2"/>
   <line x1="380" x2="400" y1="460" y2="460"/>
   <line x1="380" x2="520" y1="410" y2="410"/>
   <line x1="380" x2="640" y1="400" y2="400"/>
   <line x1="340" x2="340" y1="140" y2="158"/>
   <line x1="332" x2="348" y1="158" y2="158"/>
   <line x1="335" x2="345" y1="164" y2="164"/>
   <line x1="338" x2="342" y1="170" y2="170"/>
   <line x1="340" x2="370" y1="140" y2="140"/>
   <line x1="450" x2="450" y1="30" y2="140"/>
   <line x1="420" x2="450" y1="140" y2="140"/>
   <line x1="400" x2="400" y1="260" y2="460"/>
   <line x1="400" x2="400" y1="180" y2="200"/>
   <line x1="400" x2="400" y1="240" y2="260"/>
   <path d="m400 200v2l-7 3 14 6-14 6 14 6-14 6 14 6-7 3v2" fill-opacity="0"/>
  </g>
 </g>
 <text transform="rotate(0 386 220)" x="386" y="220" dominant-baseline="middle" font-family="Arial" font-size="11px" text-anchor="end">10 kΩ</text>
 <g stroke="#000">
  <g stroke-linecap="square">
   <g stroke-width="2">
    <line x1="420" x2="413" y1="140" y2="140"/>
    <line x1="387" x2="370" y1="140" y2="140"/>
    <line x1="400" x2="400" y1="180" y2="154"/>
   </g>
   <line x1="408" x2="392" y1="154.5" y2="154.5" stroke-width="3"/>
   <line x1="413" x2="404" y1="140" y2="154.5" stroke-width="2"/>
   <line x1="396" x2="387" y1="154.5" y2="140" stroke-width="2"/>
  </g>
  <ellipse cx="400" cy="150" rx="16" ry="16" fill-opacity="0" stroke-width="2"/>
  <g stroke-linecap="square" stroke-width="2">
   <path d="m393 148 2-4-7-1 4 6 1-2"/>
   <line x1="460" x2="460" y1="140" y2="158"/>
   <line x1="452" x2="468" y1="158" y2="158"/>
   <line x1="455" x2="465" y1="164" y2="164"/>
   <line x1="458" x2="462" y1="170" y2="170"/>
   <line x1="460" x2="490" y1="140" y2="140"/>
   <line x1="570" x2="570" y1="30" y2="140"/>
   <line x1="540" x2="570" y1="140" y2="140"/>
   <line x1="520" x2="520" y1="260" y2="410"/>
   <line x1="520" x2="520" y1="180" y2="200"/>
   <line x1="520" x2="520" y1="240" y2="260"/>
   <path d="m520 200v2l-7 3 14 6-14 6 14 6-14 6 14 6-7 3v2" fill-opacity="0"/>
  </g>
 </g>
 <text transform="rotate(0 506 220)" x="506" y="220" dominant-baseline="middle" font-family="Arial" font-size="11px" text-anchor="end">10 kΩ</text>
 <g stroke="#000">
  <g stroke-linecap="square">
   <g stroke-width="2">
    <line x1="540" x2="533" y1="140" y2="140"/>
    <line x1="507" x2="490" y1="140" y2="140"/>
    <line x1="520" x2="520" y1="180" y2="154"/>
   </g>
   <line x1="528" x2="512" y1="154.5" y2="154.5" stroke-width="3"/>
   <line x1="533" x2="524" y1="140" y2="154.5" stroke-width="2"/>
   <line x1="516" x2="507" y1="154.5" y2="140" stroke-width="2"/>
  </g>
  <ellipse cx="520" cy="150" rx="16" ry="16" fill-opacity="0" stroke-width="2"/>
  <g stroke-linecap="square" stroke-width="2">
   <path d="m513 148 2-4-7-1 4 6 1-2"/>
   <line x1="580" x2="580" y1="140" y2="158"/>
   <line x1="572" x2="588" y1="158" y2="158"/>
   <line x1="575" x2="585" y1="164" y2="164"/>
   <line x1="578" x2="582" y1="170" y2="170"/>
   <line x1="580" x2="610" y1="140" y2="140"/>
   <line x1="690" x2="690" y1="30" y2="140"/>
   <line x1="660" x2="690" y1="140" y2="140"/>
   <line x1="640" x2="640" y1="260" y2="400"/>
   <line x1="640" x2="640" y1="180" y2="200"/>
   <line x1="640" x2="640" y1="240" y2="260"/>
   <path d="m640 200v2l-7 3 14 6-14 6 14 6-14 6 14 6-7 3v2" fill-opacity="0"/>
  </g>
 </g>
 <text transform="rotate(0 626 220)" x="626" y="220" dominant-baseline="middle" font-family="Arial" font-size="11px" text-anchor="end">10 kΩ</text>
 <g stroke="#000">
  <g stroke-linecap="square">
   <g stroke-width="2">
    <line x1="660" x2="653" y1="140" y2="140"/>
    <line x1="627" x2="610" y1="140" y2="140"/>
    <line x1="640" x2="640" y1="180" y2="154"/>
   </g>
   <line x1="648" x2="632" y1="154.5" y2="154.5" stroke-width="3"/>
   <line x1="653" x2="644" y1="140" y2="154.5" stroke-width="2"/>
   <line x1="636" x2="627" y1="154.5" y2="140" stroke-width="2"/>
  </g>
  <ellipse cx="640" cy="150" rx="16" ry="16" fill-opacity="0" stroke-width="2"/>
  <g stroke-linecap="square" stroke-width="2">
   <path d="m633 148 2-4-7-1 4 6 1-2"/>
   <line x1="380" x2="770" y1="390" y2="390"/>
   <line x1="710" x2="710" y1="140" y2="158"/>
   <line x1="702" x2="718" y1="158" y2="158"/>
   <line x1="705" x2="715" y1="164" y2="164"/>
   <line x1="708" x2="712" y1="170" y2="170"/>
   <line x1="710" x2="740" y1="140" y2="140"/>
   <line x1="820" x2="820" y1="30" y2="140"/>
   <line x1="790" x2="820" y1="140" y2="140"/>
   <line x1="770" x2="770" y1="260" y2="390"/>
   <line x1="770" x2="770" y1="180" y2="200"/>
   <line x1="770" x2="770" y1="240" y2="260"/>
   <path d="m770 200v2l-7 3 14 6-14 6 14 6-14 6 14 6-7 3v2" fill-opacity="0"/>
  </g>
 </g>
 <text transform="rotate(0 756 220)" x="756" y="220" dominant-baseline="middle" font-family="Arial" font-size="11px" text-anchor="end">10 kΩ</text>
 <g stroke="#000">
  <g stroke-linecap="square">
   <g stroke-width="2">
    <line x1="790" x2="783" y1="140" y2="140"/>
    <line x1="757" x2="740" y1="140" y2="140"/>
    <line x1="770" x2="770" y1="180" y2="154"/>
   </g>
   <line x1="778" x2="762" y1="154.5" y2="154.5" stroke-width="3"/>
   <line x1="783" x2="774" y1="140" y2="154.5" stroke-width="2"/>
   <line x1="766" x2="757" y1="154.5" y2="140" stroke-width="2"/>
  </g>
  <ellipse cx="770" cy="150" rx="16" ry="16" fill-opacity="0" stroke-width="2"/>
  <g stroke-linecap="square" stroke-width="2">
   <path d="m763 148 2-4-7-1 4 6 1-2"/>
   <line x1="840" x2="840" y1="140" y2="158"/>
   <line x1="832" x2="848" y1="158" y2="158"/>
   <line x1="835" x2="845" y1="164" y2="164"/>
   <line x1="838" x2="842" y1="170" y2="170"/>
   <line x1="840" x2="870" y1="140" y2="140"/>
   <line x1="950" x2="950" y1="30" y2="140"/>
   <line x1="920" x2="950" y1="140" y2="140"/>
   <line x1="900" x2="900" y1="260" y2="380"/>
   <line x1="380" x2="900" y1="380" y2="380"/>
   <line x1="900" x2="900" y1="180" y2="200"/>
   <line x1="900" x2="900" y1="240" y2="260"/>
   <path d="m900 200v2l-7 3 14 6-14 6 14 6-14 6 14 6-7 3v2" fill-opacity="0"/>
  </g>
 </g>
 <text transform="rotate(0 886 220)" x="886" y="220" dominant-baseline="middle" font-family="Arial" font-size="11px" text-anchor="end">10 kΩ</text>
 <g stroke="#000">
  <g stroke-linecap="square">
   <g stroke-width="2">
    <line x1="920" x2="913" y1="140" y2="140"/>
    <line x1="887" x2="870" y1="140" y2="140"/>
    <line x1="900" x2="900" y1="180" y2="154"/>
   </g>
   <line x1="908" x2="892" y1="154.5" y2="154.5" stroke-width="3"/>
   <line x1="913" x2="904" y1="140" y2="154.5" stroke-width="2"/>
   <line x1="896" x2="887" y1="154.5" y2="140" stroke-width="2"/>
  </g>
  <ellipse cx="900" cy="150" rx="16" ry="16" fill-opacity="0" stroke-width="2"/>
  <path d="m893 148 2-4-7-1 4 6 1-2" stroke-linecap="square" stroke-width="2"/>
 </g>
 <g fill-opacity="0" stroke="#000" stroke-width="2">
  <rect x="295" y="370" width="90" height="160"/>
  <rect x="328" y="370" width="24" height="28"/>
  <rect x="325" y="498" width="30" height="28"/>
  <ellipse cx="330" cy="520" rx="2" ry="2"/>
  <ellipse cx="340" cy="520" rx="2" ry="2"/>
  <ellipse cx="350" cy="520" rx="2" ry="2"/>
  <ellipse cx="330" cy="505" rx="2" ry="2"/>
  <ellipse cx="340" cy="505" rx="2" ry="2"/>
  <ellipse cx="350" cy="505" rx="2" ry="2"/>
 </g>
 <g stroke="#000" stroke-linecap="square" stroke-width="2">
  <line x1="300" x2="295" y1="380" y2="380"/>
  <line x1="300" x2="295" y1="390" y2="390"/>
  <line x1="300" x2="295" y1="400" y2="400"/>
  <line x1="300" x2="295" y1="410" y2="410"/>
  <line x1="300" x2="295" y1="420" y2="420"/>
  <line x1="300" x2="295" y1="430" y2="430"/>
  <line x1="300" x2="295" y1="440" y2="440"/>
  <line x1="300" x2="295" y1="450" y2="450"/>
  <line x1="300" x2="295" y1="460" y2="460"/>
  <line x1="300" x2="295" y1="470" y2="470"/>
  <line x1="300" x2="295" y1="480" y2="480"/>
  <line x1="300" x2="295" y1="490" y2="490"/>
  <line x1="300" x2="295" y1="500" y2="500"/>
  <line x1="300" x2="295" y1="510" y2="510"/>
  <line x1="300" x2="295" y1="520" y2="520"/>
  <line x1="385" x2="380" y1="380" y2="380"/>
  <line x1="385" x2="380" y1="390" y2="390"/>
  <line x1="385" x2="380" y1="400" y2="400"/>
  <line x1="385" x2="380" y1="410" y2="410"/>
  <line x1="385" x2="380" y1="420" y2="420"/>
  <line x1="385" x2="380" y1="430" y2="430"/>
  <line x1="385" x2="380" y1="440" y2="440"/>
  <line x1="385" x2="380" y1="450" y2="450"/>
  <line x1="385" x2="380" y1="460" y2="460"/>
  <line x1="385" x2="380" y1="470" y2="470"/>
  <line x1="385" x2="380" y1="480" y2="480"/>
  <line x1="385" x2="380" y1="490" y2="490"/>
  <line x1="385" x2="380" y1="500" y2="500"/>
  <line x1="385" x2="380" y1="510" y2="510"/>
  <line x1="385" x2="380" y1="520" y2="520"/>
 </g>
 <g font-family="Arial" font-size="11px">
  <text transform="rotate(0 340 420)" x="340" y="420" dominant-baseline="middle" text-anchor="middle">Arduino</text>
  <text transform="rotate(0 340 430)" x="340" y="430" dominant-baseline="middle" text-anchor="middle">Nano</text>
  <g>
   <text transform="rotate(0 298 380)" x="298" y="380" dominant-baseline="middle">D13</text>
   <text transform="rotate(0 298 390)" x="298" y="390" dominant-baseline="middle">3V3</text>
   <text transform="rotate(0 298 400)" x="298" y="400" dominant-baseline="middle">REF</text>
   <text transform="rotate(0 298 410)" x="298" y="410" dominant-baseline="middle">A0 </text>
   <text transform="rotate(0 298 420)" x="298" y="420" dominant-baseline="middle">A1 </text>
   <text transform="rotate(0 298 430)" x="298" y="430" dominant-baseline="middle">A2 </text>
   <text transform="rotate(0 298 440)" x="298" y="440" dominant-baseline="middle">A3 </text>
   <text transform="rotate(0 298 450)" x="298" y="450" dominant-baseline="middle">A4 </text>
   <text transform="rotate(0 298 460)" x="298" y="460" dominant-baseline="middle">A5 </text>
   <text transform="rotate(0 298 470)" x="298" y="470" dominant-baseline="middle">A6 </text>
   <text transform="rotate(0 298 480)" x="298" y="480" dominant-baseline="middle">A7 </text>
   <text transform="rotate(0 298 490)" x="298" y="490" dominant-baseline="middle">5V </text>
   <text transform="rotate(0 298 500)" x="298" y="500" dominant-baseline="middle">RST</text>
   <text transform="rotate(0 298 510)" x="298" y="510" dominant-baseline="middle">GND</text>
   <text transform="rotate(0 298 520)" x="298" y="520" dominant-baseline="middle">VIN</text>
  </g>
  <g text-anchor="end">
   <text transform="rotate(0 382 380)" x="382" y="380" dominant-baseline="middle">D12</text>
   <text transform="rotate(0 382 390)" x="382" y="390" dominant-baseline="middle">D11</text>
   <text transform="rotate(0 382 400)" x="382" y="400" dominant-baseline="middle">D10</text>
   <text transform="rotate(0 382 410)" x="382" y="410" dominant-baseline="middle">D9</text>
   <text transform="rotate(0 382 420)" x="382" y="420" dominant-baseline="middle">D8</text>
   <text transform="rotate(0 382 430)" x="382" y="430" dominant-baseline="middle">D7</text>
   <text transform="rotate(0 382 440)" x="382" y="440" dominant-baseline="middle">D6</text>
   <text transform="rotate(0 382 450)" x="382" y="450" dominant-baseline="middle">D5</text>
   <text transform="rotate(0 382 460)" x="382" y="460" dominant-baseline="middle">D4</text>
   <text transform="rotate(0 382 470)" x="382" y="470" dominant-baseline="middle">D3</text>
   <text transform="rotate(0 382 480)" x="382" y="480" dominant-baseline="middle">D2</text>
   <text transform="rotate(0 382 490)" x="382" y="490" dominant-baseline="middle">GND</text>
   <text transform="rotate(0 382 500)" x="382" y="500" dominant-baseline="middle">RST</text>
   <text transform="rotate(0 382 510)" x="382" y="510" dominant-baseline="middle">RX0</text>
   <text transform="rotate(0 382 520)" x="382" y="520" dominant-baseline="middle">TX1</text>
  </g>
 </g>
 <ellipse cx="250" cy="510" rx="2" ry="2" stroke="#000" stroke-width="2"/>
 <g fill="#000000" font-family="sans-serif" font-size="24px">
  <text x="139.70111" y="50.35725" style="line-height:1.25" xml:space="preserve"><tspan x="139.70111" y="50.35725" font-size="24px">Dir U</tspan></text>
  <text x="257.92905" y="50.527172" style="line-height:1.25" xml:space="preserve"><tspan x="257.92905" y="50.527172" font-size="24px">Dir D</tspan></text>
  <text x="380.85815" y="50.527172" style="line-height:1.25" xml:space="preserve"><tspan x="380.85815" y="50.527172" font-size="24px">Dir L</tspan></text>
  <text x="500.50604" y="50.527172" style="line-height:1.25" xml:space="preserve"><tspan x="500.50604" y="50.527172" font-size="24px">Dir R</tspan></text>
  <text x="615.09924" y="50.158031" style="line-height:1.25" xml:space="preserve"><tspan x="615.09924" y="50.158031" font-size="24px">Btn B</tspan></text>
  <text x="743.77246" y="50.146313" style="line-height:1.25" xml:space="preserve"><tspan x="743.77246" y="50.146313" font-size="24px">Btn C</tspan></text>
  <text x="869.98871" y="50.158031" style="line-height:1.25" xml:space="preserve"><tspan x="869.98871" y="50.158031" font-size="24px">Btn D</tspan></text>
 </g>
</svg>
